<svg width="60" height="60" viewBox="0 0 60 60" fill="none" xmlns="http://www.w3.org/2000/svg">
<path d="M31.2562 59.6437L8.39062 45.1968L8.6475 18.5465L31.5112 32.9999L31.2562 59.6437Z" fill="#8C6D53"/>
<path d="M54.8062 14.9587L54.5531 41.6062L31.2562 59.6437L31.5112 33L54.8062 14.9587Z" fill="#A4805E"/>
<path d="M30 31.8656V59.0156L31.125 59.6437L32.1 58.9472L32.5069 32.1093L30 31.8656Z" fill="#C19D84"/>
<path d="M31.5113 33L8.64752 18.5465L31.9406 0.509033L54.8063 14.9587L31.5113 33Z" fill="#8A5F3D"/>
<path d="M47.025 26.25L39.675 32.1094L37.65 22.65L46.1625 21.5719L47.025 26.25Z" fill="#D6E8ED"/>
<path d="M45.9056 21.8532L40.35 26.1582L18.4088 10.9922L23.9241 6.71631L45.9056 21.8532Z" fill="#D6E8ED"/>
<path d="M44.3156 23.0878L38.6156 27.4978L16.7756 12.2531L22.2938 7.9856L44.3156 23.0878Z" fill="#B6C9CE"/>
<path d="M44.6185 23.0541L45.45 27.5785L39.0329 32.266L38.1675 27.5503L44.6185 23.0541Z" fill="#B6C9CE"/>
</svg>
