<svg width="60" height="60" viewBox="0 0 60 60" fill="none" xmlns="http://www.w3.org/2000/svg">
<g filter="url(#filter0_i_2244_761)">
<path d="M7.08939 18.2062C7.08962 18.0482 7.12979 17.8928 7.20617 17.7545C7.28255 17.6162 7.39266 17.4994 7.52626 17.415L29.2069 3.71249C29.3567 3.61785 29.5303 3.56763 29.7075 3.56763C29.8847 3.56763 30.0583 3.61785 30.2081 3.71249L51.8869 17.4187C52.0205 17.5031 52.1306 17.6199 52.207 17.7582C52.2834 17.8966 52.3235 18.052 52.3238 18.21V42.1312C52.3237 42.2909 52.2828 42.4479 52.2051 42.5874C52.1273 42.7268 52.0152 42.8441 51.8794 42.9281L30.1988 56.2969C30.0508 56.3881 29.8804 56.4365 29.7066 56.4365C29.5327 56.4365 29.3623 56.3881 29.2144 56.2969L7.53751 42.9262C7.40136 42.8425 7.28889 42.7253 7.21079 42.5858C7.13268 42.4463 7.09154 42.2892 7.09126 42.1294V18.2062H7.08939Z" fill="url(#paint0_linear_2244_761)"/>
<path d="M7.08939 18.2062C7.08962 18.0482 7.12979 17.8928 7.20617 17.7545C7.28255 17.6162 7.39266 17.4994 7.52626 17.415L29.2069 3.71249C29.3567 3.61785 29.5303 3.56763 29.7075 3.56763C29.8847 3.56763 30.0583 3.61785 30.2081 3.71249L51.8869 17.4187C52.0205 17.5031 52.1306 17.6199 52.207 17.7582C52.2834 17.8966 52.3235 18.052 52.3238 18.21V42.1312C52.3237 42.2909 52.2828 42.4479 52.2051 42.5874C52.1273 42.7268 52.0152 42.8441 51.8794 42.9281L30.1988 56.2969C30.0508 56.3881 29.8804 56.4365 29.7066 56.4365C29.5327 56.4365 29.3623 56.3881 29.2144 56.2969L7.53751 42.9262C7.40136 42.8425 7.28889 42.7253 7.21079 42.5858C7.13268 42.4463 7.09154 42.2892 7.09126 42.1294V18.2062H7.08939Z" fill="url(#paint1_linear_2244_761)"/>
</g>
<g filter="url(#filter1_i_2244_761)">
<path d="M29.5312 56.4188C29.419 56.3972 29.3116 56.3553 29.2144 56.295L7.5375 42.9263C7.40135 42.8425 7.28888 42.7253 7.21077 42.5859C7.13267 42.4464 7.09152 42.2893 7.09125 42.1294V18.2175L29.0906 31.89C29.2258 31.9741 29.3374 32.0912 29.4148 32.2303C29.4922 32.3693 29.5329 32.5258 29.5331 32.685V56.4188H29.5312Z" fill="url(#paint2_linear_2244_761)"/>
</g>
<path d="M52.2713 17.8969C52.3062 17.9969 52.324 18.1021 52.3238 18.2081V42.1294C52.3237 42.289 52.2828 42.446 52.205 42.5855C52.1273 42.725 52.0152 42.8422 51.8794 42.9262L30.1988 56.295C29.9993 56.4175 29.7612 56.461 29.5313 56.4169V32.5275C29.5311 32.368 29.5717 32.2111 29.6491 32.0716C29.7266 31.9322 29.8383 31.8148 29.9738 31.7306L52.0987 17.9812C52.1533 17.9474 52.2111 17.9191 52.2713 17.8969V17.8969Z" fill="url(#paint3_linear_2244_761)"/>
<path d="M52.2713 17.8969C52.3062 17.9969 52.324 18.1021 52.3238 18.2081V42.1294C52.3237 42.289 52.2828 42.446 52.205 42.5855C52.1273 42.725 52.0152 42.8422 51.8794 42.9262L30.1988 56.295C29.9993 56.4175 29.7612 56.461 29.5313 56.4169V32.5275C29.5311 32.368 29.5717 32.2111 29.6491 32.0716C29.7266 31.9322 29.8383 31.8148 29.9738 31.7306L52.0987 17.9812C52.1533 17.9474 52.2111 17.9191 52.2713 17.8969V17.8969Z" fill="url(#paint4_linear_2244_761)"/>
<g filter="url(#filter2_i_2244_761)">
<path d="M20.2144 42.8137C20.2145 42.7134 20.2415 42.6149 20.2925 42.5285C20.3435 42.4421 20.4167 42.3709 20.5045 42.3223C20.5923 42.2737 20.6915 42.2495 20.7918 42.2522C20.8921 42.2548 20.9899 42.2843 21.075 42.3375L26.9363 45.9806C27.0717 46.0648 27.1834 46.1822 27.2609 46.3216C27.3383 46.4611 27.3789 46.618 27.3788 46.7775V51.015C27.379 51.1155 27.3522 51.2142 27.3013 51.3009C27.2505 51.3875 27.1773 51.459 27.0894 51.5078C27.0016 51.5566 26.9023 51.581 26.8018 51.5784C26.7013 51.5758 26.6034 51.5463 26.5181 51.4931L20.6569 47.85C20.5214 47.7657 20.4097 47.6484 20.3323 47.5089C20.2548 47.3695 20.2143 47.2126 20.2144 47.0531V42.8156V42.8137Z" fill="url(#paint5_linear_2244_761)"/>
</g>
<g filter="url(#filter3_i_2244_761)">
<path d="M15.4688 24.1182V29.2632L20.9475 32.5444V27.7575C20.9475 27.1163 21.27 26.5238 21.81 26.1788C29.2913 21.3938 42.7687 12.66 43.095 12.345C43.395 12.1257 43.7944 12.2325 43.9163 12.4032C43.9163 12.0525 43.7288 11.8463 43.6369 11.7882L38.4994 8.65316C38.3491 8.56134 38.176 8.5137 37.9999 8.51568C37.8239 8.51767 37.6519 8.56922 37.5038 8.66441L16.4981 22.2263C16.182 22.4304 15.9222 22.7105 15.7424 23.0411C15.5625 23.3716 15.4685 23.7419 15.4688 24.1182V24.1182Z" fill="#966957"/>
<path d="M15.4688 24.1182V29.2632L20.9475 32.5444V27.7575C20.9475 27.1163 21.27 26.5238 21.81 26.1788C29.2913 21.3938 42.7687 12.66 43.095 12.345C43.395 12.1257 43.7944 12.2325 43.9163 12.4032C43.9163 12.0525 43.7288 11.8463 43.6369 11.7882L38.4994 8.65316C38.3491 8.56134 38.176 8.5137 37.9999 8.51568C37.8239 8.51767 37.6519 8.56922 37.5038 8.66441L16.4981 22.2263C16.182 22.4304 15.9222 22.7105 15.7424 23.0411C15.5625 23.3716 15.4685 23.7419 15.4688 24.1182V24.1182Z" fill="url(#paint6_linear_2244_761)"/>
<path d="M15.4688 24.1182V29.2632L20.9475 32.5444V27.7575C20.9475 27.1163 21.27 26.5238 21.81 26.1788C29.2913 21.3938 42.7687 12.66 43.095 12.345C43.395 12.1257 43.7944 12.2325 43.9163 12.4032C43.9163 12.0525 43.7288 11.8463 43.6369 11.7882L38.4994 8.65316C38.3491 8.56134 38.176 8.5137 37.9999 8.51568C37.8239 8.51767 37.6519 8.56922 37.5038 8.66441L16.4981 22.2263C16.182 22.4304 15.9222 22.7105 15.7424 23.0411C15.5625 23.3716 15.4685 23.7419 15.4688 24.1182V24.1182Z" fill="url(#paint7_linear_2244_761)"/>
</g>
<g filter="url(#filter4_f_2244_761)">
<path d="M43.5356 11.9925C43.3894 11.8875 43.1606 11.9494 43.0669 11.9925L21.4163 26.115C21.29 26.2078 21.183 26.3243 21.1013 26.4581" stroke="#A47E73" stroke-width="0.05"/>
</g>
<g filter="url(#filter5_f_2244_761)">
<path d="M30 31.6368L51.7969 18.0431" stroke="#F4CAA3" stroke-width="0.2" stroke-linecap="round"/>
</g>
<defs>
<filter id="filter0_i_2244_761" x="7.08939" y="3.56763" width="45.2344" height="52.9688" filterUnits="userSpaceOnUse" color-interpolation-filters="sRGB">
<feFlood flood-opacity="0" result="BackgroundImageFix"/>
<feBlend mode="normal" in="SourceGraphic" in2="BackgroundImageFix" result="shape"/>
<feColorMatrix in="SourceAlpha" type="matrix" values="0 0 0 0 0 0 0 0 0 0 0 0 0 0 0 0 0 0 127 0" result="hardAlpha"/>
<feOffset dy="0.1"/>
<feGaussianBlur stdDeviation="0.15"/>
<feComposite in2="hardAlpha" operator="arithmetic" k2="-1" k3="1"/>
<feColorMatrix type="matrix" values="0 0 0 0 0.843137 0 0 0 0 0.694118 0 0 0 0 0.52549 0 0 0 1 0"/>
<feBlend mode="normal" in2="shape" result="effect1_innerShadow_2244_761"/>
</filter>
<filter id="filter1_i_2244_761" x="7.09125" y="18.2175" width="23.4419" height="39.2013" filterUnits="userSpaceOnUse" color-interpolation-filters="sRGB">
<feFlood flood-opacity="0" result="BackgroundImageFix"/>
<feBlend mode="normal" in="SourceGraphic" in2="BackgroundImageFix" result="shape"/>
<feColorMatrix in="SourceAlpha" type="matrix" values="0 0 0 0 0 0 0 0 0 0 0 0 0 0 0 0 0 0 127 0" result="hardAlpha"/>
<feOffset dx="1" dy="1"/>
<feGaussianBlur stdDeviation="1.5"/>
<feComposite in2="hardAlpha" operator="arithmetic" k2="-1" k3="1"/>
<feColorMatrix type="matrix" values="0 0 0 0 0.831373 0 0 0 0 0.670588 0 0 0 0 0.545098 0 0 0 1 0"/>
<feBlend mode="normal" in2="shape" result="effect1_innerShadow_2244_761"/>
</filter>
<filter id="filter2_i_2244_761" x="20.1144" y="42.252" width="7.26437" height="9.32666" filterUnits="userSpaceOnUse" color-interpolation-filters="sRGB">
<feFlood flood-opacity="0" result="BackgroundImageFix"/>
<feBlend mode="normal" in="SourceGraphic" in2="BackgroundImageFix" result="shape"/>
<feColorMatrix in="SourceAlpha" type="matrix" values="0 0 0 0 0 0 0 0 0 0 0 0 0 0 0 0 0 0 127 0" result="hardAlpha"/>
<feOffset dx="-0.15"/>
<feGaussianBlur stdDeviation="0.05"/>
<feComposite in2="hardAlpha" operator="arithmetic" k2="-1" k3="1"/>
<feColorMatrix type="matrix" values="0 0 0 0 0.760103 0 0 0 0 0.683293 0 0 0 0 0.795016 0 0 0 1 0"/>
<feBlend mode="normal" in2="shape" result="effect1_innerShadow_2244_761"/>
</filter>
<filter id="filter3_i_2244_761" x="15.3687" y="8.51562" width="28.5475" height="24.0288" filterUnits="userSpaceOnUse" color-interpolation-filters="sRGB">
<feFlood flood-opacity="0" result="BackgroundImageFix"/>
<feBlend mode="normal" in="SourceGraphic" in2="BackgroundImageFix" result="shape"/>
<feColorMatrix in="SourceAlpha" type="matrix" values="0 0 0 0 0 0 0 0 0 0 0 0 0 0 0 0 0 0 127 0" result="hardAlpha"/>
<feOffset dx="-0.1"/>
<feGaussianBlur stdDeviation="0.05"/>
<feComposite in2="hardAlpha" operator="arithmetic" k2="-1" k3="1"/>
<feColorMatrix type="matrix" values="0 0 0 0 0.47451 0 0 0 0 0.266667 0 0 0 0 0.301961 0 0 0 1 0"/>
<feBlend mode="normal" in2="shape" result="effect1_innerShadow_2244_761"/>
</filter>
<filter id="filter4_f_2244_761" x="20.9799" y="11.8097" width="22.6703" height="14.7615" filterUnits="userSpaceOnUse" color-interpolation-filters="sRGB">
<feFlood flood-opacity="0" result="BackgroundImageFix"/>
<feBlend mode="normal" in="SourceGraphic" in2="BackgroundImageFix" result="shape"/>
<feGaussianBlur stdDeviation="0.05" result="effect1_foregroundBlur_2244_761"/>
</filter>
<filter id="filter5_f_2244_761" x="29.65" y="17.6931" width="22.4969" height="14.2937" filterUnits="userSpaceOnUse" color-interpolation-filters="sRGB">
<feFlood flood-opacity="0" result="BackgroundImageFix"/>
<feBlend mode="normal" in="SourceGraphic" in2="BackgroundImageFix" result="shape"/>
<feGaussianBlur stdDeviation="0.125" result="effect1_foregroundBlur_2244_761"/>
</filter>
<linearGradient id="paint0_linear_2244_761" x1="29.7075" y1="3.56624" x2="29.7075" y2="56.4337" gradientUnits="userSpaceOnUse">
<stop stop-color="#DEB586"/>
<stop offset="1" stop-color="#D7AA82"/>
</linearGradient>
<linearGradient id="paint1_linear_2244_761" x1="19.9219" y1="26.3925" x2="20.7713" y2="25.0444" gradientUnits="userSpaceOnUse">
<stop offset="0.066" stop-color="#C99D78"/>
<stop offset="1" stop-color="#DCB185" stop-opacity="0"/>
</linearGradient>
<linearGradient id="paint2_linear_2244_761" x1="10.08" y1="28.4419" x2="25.9987" y2="55.0725" gradientUnits="userSpaceOnUse">
<stop stop-color="#B98875"/>
<stop offset="1" stop-color="#AA684F"/>
</linearGradient>
<linearGradient id="paint3_linear_2244_761" x1="31.1137" y1="31.4025" x2="46.1137" y2="46.9893" gradientUnits="userSpaceOnUse">
<stop stop-color="#D7A585"/>
<stop offset="1" stop-color="#BD7943"/>
</linearGradient>
<linearGradient id="paint4_linear_2244_761" x1="28.9219" y1="47.2744" x2="31.0931" y2="47.1544" gradientUnits="userSpaceOnUse">
<stop stop-color="#B46C4B"/>
<stop offset="1" stop-color="#BD7E61" stop-opacity="0"/>
</linearGradient>
<linearGradient id="paint5_linear_2244_761" x1="21.2644" y1="42.645" x2="26.1769" y2="52.1118" gradientUnits="userSpaceOnUse">
<stop stop-color="#CAB6CD"/>
<stop offset="1" stop-color="#D1BED7"/>
</linearGradient>
<linearGradient id="paint6_linear_2244_761" x1="16.5244" y1="29.7319" x2="20.2744" y2="24.1669" gradientUnits="userSpaceOnUse">
<stop offset="0.649" stop-color="#8D6D6C"/>
<stop offset="0.726" stop-color="#83554C"/>
<stop offset="0.825" stop-color="#83554C"/>
<stop offset="1" stop-color="#976A58" stop-opacity="0"/>
</linearGradient>
<linearGradient id="paint7_linear_2244_761" x1="42.48" y1="10.8357" x2="40.605" y2="12.945" gradientUnits="userSpaceOnUse">
<stop stop-color="#9C6F5D"/>
<stop offset="1" stop-color="#9C6F5D" stop-opacity="0"/>
</linearGradient>
</defs>
</svg>
