<svg width="60" height="60" viewBox="0 0 60 60" fill="none" xmlns="http://www.w3.org/2000/svg">
<path d="M28.7813 4.01816C29.3813 3.66191 30.1125 3.66191 30.6938 4.01816L51.1688 16.4682C51.6563 16.7682 51.9562 17.3119 51.9562 17.8744L29.7375 32.8125L7.5 18.06V17.8725C7.5 17.31 7.8 16.7663 8.2875 16.485L28.7813 4.01629V4.01816Z" fill="#F3C07B"/>
<path d="M29.73 30.4613L51.03 17.5238C51.1234 17.4681 51.2299 17.4382 51.3386 17.437C51.4473 17.4359 51.5544 17.4636 51.649 17.5174C51.7435 17.5711 51.8221 17.649 51.8767 17.743C51.9314 17.837 51.9601 17.9438 51.96 18.0526V41.1901C51.9603 41.7472 51.8173 42.2951 51.5447 42.7811C51.2722 43.267 50.8793 43.6747 50.4037 43.9651L30.4538 56.0776C30.403 56.1054 30.3478 56.1245 30.2906 56.1338C30.2402 56.1488 30.1876 56.1557 30.135 56.1544C29.9221 56.214 29.6995 56.2309 29.4801 56.2042C29.2606 56.1775 29.0486 56.1077 28.8563 55.9988H28.8675L24.375 35.6251L29.73 30.4613Z" fill="#FFCE7C"/>
<path d="M29.7375 55.5412V30.4725L8.45626 17.535C8.36229 17.4746 8.25377 17.4406 8.14212 17.4368C8.03048 17.4329 7.91987 17.4592 7.82194 17.513C7.72402 17.5668 7.64243 17.646 7.58576 17.7422C7.5291 17.8385 7.49947 17.9483 7.50001 18.06V41.1975C7.50001 42.3412 8.10001 43.3912 9.05626 43.9725L28.875 56.01C28.9596 56.0633 29.0569 56.0932 29.1568 56.0964C29.2568 56.0996 29.3558 56.0762 29.4437 56.0284C29.5315 55.9807 29.6051 55.9104 29.6567 55.8247C29.7084 55.7391 29.7363 55.6412 29.7375 55.5412V55.5412Z" fill="#E19747"/>
<path d="M27.1875 50.2163V46.5413C27.1875 46.11 26.9625 45.7163 26.6063 45.4913L21.3563 42.3225C21 42.1163 20.55 42.36 20.55 42.7725V46.4475C20.55 46.8788 20.775 47.2725 21.1313 47.4975L26.3813 50.6663C26.7375 50.8725 27.1875 50.6288 27.1875 50.2163Z" fill="#D3D3D3"/>
<path d="M22.05 31.035V22.485L15.9 22.0725V27.9975C15.9 28.185 15.9937 28.3725 16.1625 28.485L21.1875 31.5413C21.5625 31.7475 22.05 31.485 22.05 31.035V31.035Z" fill="#8C5543"/>
<path d="M38.1375 8.55566L15.9 22.0744L22.05 25.8244L44.2875 12.3244L38.1375 8.55566V8.55566Z" fill="#A56953"/>
</svg>
