<svg width="37" height="37" viewBox="0 0 37 37" fill="none" xmlns="http://www.w3.org/2000/svg">
<path d="M24.6667 24.6667H33.9167M29.2917 20.0417V29.2917M32.375 15.4167V12.3334C32.3744 11.7927 32.2317 11.2616 31.9611 10.7935C31.6905 10.3254 31.3016 9.93665 30.8333 9.6663L20.0417 3.49964C19.5729 3.22902 19.0412 3.08655 18.5 3.08655C17.9588 3.08655 17.4271 3.22902 16.9583 3.49964L6.16667 9.6663C5.6984 9.93665 5.30947 10.3254 5.03888 10.7935C4.76829 11.2616 4.62555 11.7927 4.625 12.3334V24.6667C4.62555 25.2074 4.76829 25.7385 5.03888 26.2066C5.30947 26.6747 5.6984 27.0635 6.16667 27.3338L16.9583 33.5005C17.4271 33.7711 17.9588 33.9136 18.5 33.9136C19.0412 33.9136 19.5729 33.7711 20.0417 33.5005L23.125 31.743M25.4375 14.4917L11.6396 6.53672M5.07208 10.7917L18.5 18.5001M18.5 18.5001L31.9279 10.7917M18.5 18.5001V33.9167" stroke="white" stroke-width="2" stroke-linecap="round" stroke-linejoin="round"/>
</svg>
