<svg width="50" height="50" viewBox="0 0 50 50" fill="none" xmlns="http://www.w3.org/2000/svg">
<path d="M37.5 16.6666H41.6667C42.2192 16.6666 42.7491 16.8861 43.1398 17.2768C43.5305 17.6675 43.75 18.1974 43.75 18.75V43.75C43.75 44.3025 43.5305 44.8324 43.1398 45.2231C42.7491 45.6138 42.2192 45.8333 41.6667 45.8333H8.33333C7.7808 45.8333 7.25089 45.6138 6.86019 45.2231C6.46949 44.8324 6.25 44.3025 6.25 43.75V18.75C6.25 18.1974 6.46949 17.6675 6.86019 17.2768C7.25089 16.8861 7.7808 16.6666 8.33333 16.6666H12.5V14.5833C12.5 11.2681 13.817 8.08868 16.1612 5.74448C18.5054 3.40027 21.6848 2.08331 25 2.08331C28.3152 2.08331 31.4946 3.40027 33.8388 5.74448C36.183 8.08868 37.5 11.2681 37.5 14.5833V16.6666ZM10.4167 20.8333V41.6666H39.5833V20.8333H10.4167ZM22.9167 29.1666H27.0833V33.3333H22.9167V29.1666ZM14.5833 29.1666H18.75V33.3333H14.5833V29.1666ZM31.25 29.1666H35.4167V33.3333H31.25V29.1666ZM33.3333 16.6666V14.5833C33.3333 12.3732 32.4554 10.2536 30.8926 8.69076C29.3298 7.12795 27.2101 6.24998 25 6.24998C22.7899 6.24998 20.6702 7.12795 19.1074 8.69076C17.5446 10.2536 16.6667 12.3732 16.6667 14.5833V16.6666H33.3333Z" fill="white"/>
</svg>
