<svg width="100" height="100" viewBox="0 0 100 100" fill="none" xmlns="http://www.w3.org/2000/svg">
<path d="M79.166 45.8334H54.166V20.8334C54.166 19.7283 53.727 18.6685 52.9456 17.8871C52.1642 17.1057 51.1044 16.6667 49.9993 16.6667C48.8943 16.6667 47.8345 17.1057 47.0531 17.8871C46.2717 18.6685 45.8327 19.7283 45.8327 20.8334V45.8334H20.8327C19.7276 45.8334 18.6678 46.2724 17.8864 47.0538C17.105 47.8352 16.666 48.895 16.666 50.0001C16.666 51.1051 17.105 52.165 17.8864 52.9464C18.6678 53.7278 19.7276 54.1667 20.8327 54.1667H45.8327V79.1667C45.8327 80.2718 46.2717 81.3316 47.0531 82.113C47.8345 82.8944 48.8943 83.3334 49.9993 83.3334C51.1044 83.3334 52.1642 82.8944 52.9456 82.113C53.727 81.3316 54.166 80.2718 54.166 79.1667V54.1667H79.166C80.2711 54.1667 81.3309 53.7278 82.1123 52.9464C82.8937 52.165 83.3327 51.1051 83.3327 50.0001C83.3327 48.895 82.8937 47.8352 82.1123 47.0538C81.3309 46.2724 80.2711 45.8334 79.166 45.8334Z" fill="white"/>
</svg>
