<svg width="50" height="50" viewBox="0 0 50 50" fill="none" xmlns="http://www.w3.org/2000/svg">
<path d="M42.1875 0H4.6875C2.10938 0 0 2.10938 0 4.6875V45.3125C0 47.8906 2.10938 50 4.6875 50H42.1875C44.7656 50 46.875 47.8906 46.875 45.3125V4.6875C46.875 2.10938 44.7656 0 42.1875 0ZM40.625 43.75H6.25V6.25H40.625V43.75ZM12.5 28.125H34.375V31.25H12.5V28.125ZM12.5 34.375H34.375V37.5H12.5V34.375ZM15.625 14.0625C15.6252 13.4467 15.7467 12.837 15.9825 12.2682C16.2184 11.6994 16.5639 11.1826 16.9995 10.7473C17.4351 10.312 17.9521 9.96679 18.5211 9.73134C19.0901 9.49588 19.6998 9.37479 20.3156 9.375C20.9314 9.37521 21.5411 9.49669 22.1099 9.73253C22.6788 9.96837 23.1956 10.3139 23.6308 10.7495C24.0661 11.1851 24.4113 11.7021 24.6468 12.2711C24.8822 12.8401 25.0033 13.4498 25.0031 14.0656C25.0027 15.3092 24.5083 16.5018 23.6286 17.3808C22.749 18.2599 21.5561 18.7535 20.3125 18.7531C19.0689 18.7527 17.8764 18.2583 16.9973 17.3786C16.1182 16.499 15.6246 15.3061 15.625 14.0625ZM23.4375 18.75H17.1875C14.6094 18.75 12.5 20.1562 12.5 21.875V25H28.125V21.875C28.125 20.1562 26.0156 18.75 23.4375 18.75Z" fill="white"/>
</svg>
