<svg width="37" height="37" viewBox="0 0 37 37" fill="none" xmlns="http://www.w3.org/2000/svg">
<path d="M18.4997 1.54169C17.4775 1.54169 16.4972 1.94775 15.7744 2.67055C15.0516 3.39334 14.6455 4.37367 14.6455 5.39585C14.6459 6.14545 14.8649 6.87866 15.2756 7.50571C15.6863 8.13276 16.271 8.62643 16.958 8.92627V10.7917H10.7913C9.97359 10.7917 9.18933 11.1165 8.61109 11.6948C8.03286 12.273 7.70801 13.0573 7.70801 13.875V14.9696C7.02099 15.2694 6.43632 15.7631 6.02559 16.3902C5.61486 17.0172 5.39589 17.7504 5.39551 18.5C5.39589 19.2496 5.61486 19.9828 6.02559 20.6099C6.43632 21.2369 7.02099 21.7306 7.70801 22.0304V23.125H6.16634C5.34859 23.125 4.56433 23.4499 3.98609 24.0281C3.40786 24.6063 3.08301 25.3906 3.08301 26.2084V28.0738C2.39599 28.3736 1.81132 28.8673 1.40059 29.4943C0.989859 30.1214 0.770894 30.8546 0.770508 31.6042C0.770508 32.6264 1.17657 33.6067 1.89937 34.3295C2.25726 34.6874 2.68214 34.9713 3.14975 35.165C3.61736 35.3587 4.11854 35.4584 4.62467 35.4584C5.64686 35.4584 6.62719 35.0523 7.34998 34.3295C8.07278 33.6067 8.47884 32.6264 8.47884 31.6042C8.47845 30.8546 8.25949 30.1214 7.84876 29.4943C7.43803 28.8673 6.85336 28.3736 6.16634 28.0738V26.2084H12.333V28.0738C11.646 28.3736 11.0613 28.8673 10.6506 29.4943C10.2399 30.1214 10.0209 30.8546 10.0205 31.6042C10.0205 32.6264 10.4266 33.6067 11.1494 34.3295C11.8722 35.0523 12.8525 35.4584 13.8747 35.4584C14.3808 35.4584 14.882 35.3587 15.3496 35.165C15.8172 34.9713 16.2421 34.6874 16.6 34.3295C16.9579 33.9716 17.2418 33.5467 17.4355 33.0791C17.6292 32.6115 17.7288 32.1103 17.7288 31.6042C17.7285 30.8546 17.5095 30.1214 17.0988 29.4943C16.688 28.8673 16.1034 28.3736 15.4163 28.0738V26.2084C15.4163 25.3906 15.0915 24.6063 14.5133 24.0281C13.935 23.4499 13.1508 23.125 12.333 23.125H10.7913V22.0304C11.4784 21.7306 12.063 21.2369 12.4738 20.6099C12.8845 19.9828 13.1035 19.2496 13.1038 18.5C13.1035 17.7504 12.8845 17.0172 12.4738 16.3902C12.063 15.7631 11.4784 15.2694 10.7913 14.9696V13.875H26.208V14.9696C25.521 15.2694 24.9363 15.7631 24.5256 16.3902C24.1149 17.0172 23.8959 17.7504 23.8955 18.5C23.8959 19.2496 24.1149 19.9828 24.5256 20.6099C24.9363 21.2369 25.521 21.7306 26.208 22.0304V23.125H24.6663C23.8486 23.125 23.0643 23.4499 22.4861 24.0281C21.9079 24.6063 21.583 25.3906 21.583 26.2084V28.0738C20.896 28.3736 20.3113 28.8673 19.9006 29.4943C19.4899 30.1214 19.2709 30.8546 19.2705 31.6042C19.2705 32.6264 19.6766 33.6067 20.3994 34.3295C21.1222 35.0523 22.1025 35.4584 23.1247 35.4584C24.1469 35.4584 25.1272 35.0523 25.85 34.3295C26.5728 33.6067 26.9788 32.6264 26.9788 31.6042C26.9785 30.8546 26.7595 30.1214 26.3488 29.4943C25.938 28.8673 25.3534 28.3736 24.6663 28.0738V26.2084H30.833V28.0738C30.146 28.3736 29.5613 28.8673 29.1506 29.4943C28.7399 30.1214 28.5209 30.8546 28.5205 31.6042C28.5205 32.6264 28.9266 33.6067 29.6494 34.3295C30.3722 35.0523 31.3525 35.4584 32.3747 35.4584C33.3969 35.4584 34.3772 35.0523 35.1 34.3295C35.8228 33.6067 36.2288 32.6264 36.2288 31.6042C36.2285 30.8546 36.0095 30.1214 35.5988 29.4943C35.188 28.8673 34.6034 28.3736 33.9163 28.0738V26.2084C33.9163 25.3906 33.5915 24.6063 33.0133 24.0281C32.435 23.4499 31.6508 23.125 30.833 23.125H29.2913V22.0304C29.9784 21.7306 30.563 21.2369 30.9738 20.6099C31.3845 19.9828 31.6035 19.2496 31.6038 18.5C31.6035 17.7504 31.3845 17.0172 30.9738 16.3902C30.563 15.7631 29.9784 15.2694 29.2913 14.9696V13.875C29.2913 13.0573 28.9665 12.273 28.3883 11.6948C27.81 11.1165 27.0258 10.7917 26.208 10.7917H20.0413V8.92627C20.7284 8.62643 21.313 8.13276 21.7238 7.50571C22.1345 6.87866 22.3535 6.14545 22.3538 5.39585C22.3538 4.37367 21.9478 3.39334 21.225 2.67055C20.5022 1.94775 19.5219 1.54169 18.4997 1.54169ZM18.4997 3.85419C18.9086 3.85419 19.3007 4.01661 19.5898 4.30573C19.8789 4.59485 20.0413 4.98698 20.0413 5.39585C20.0413 5.80473 19.8789 6.19686 19.5898 6.48598C19.3007 6.77509 18.9086 6.93752 18.4997 6.93752C18.0908 6.93752 17.6987 6.77509 17.4096 6.48598C17.1204 6.19686 16.958 5.80473 16.958 5.39585C16.958 4.98698 17.1204 4.59485 17.4096 4.30573C17.6987 4.01661 18.0908 3.85419 18.4997 3.85419ZM9.24967 16.9584C9.65855 16.9584 10.0507 17.1208 10.3398 17.4099C10.6289 17.699 10.7913 18.0911 10.7913 18.5C10.7913 18.9089 10.6289 19.301 10.3398 19.5901C10.0507 19.8793 9.65855 20.0417 9.24967 20.0417C8.8408 20.0417 8.44867 19.8793 8.15955 19.5901C7.87043 19.301 7.70801 18.9089 7.70801 18.5C7.70801 18.0911 7.87043 17.699 8.15955 17.4099C8.44867 17.1208 8.8408 16.9584 9.24967 16.9584ZM27.7497 16.9584C28.1585 16.9584 28.5507 17.1208 28.8398 17.4099C29.1289 17.699 29.2913 18.0911 29.2913 18.5C29.2913 18.9089 29.1289 19.301 28.8398 19.5901C28.5507 19.8793 28.1585 20.0417 27.7497 20.0417C27.3408 20.0417 26.9487 19.8793 26.6595 19.5901C26.3704 19.301 26.208 18.9089 26.208 18.5C26.208 18.0911 26.3704 17.699 26.6595 17.4099C26.9487 17.1208 27.3408 16.9584 27.7497 16.9584ZM4.62467 30.0625C5.03355 30.0625 5.42568 30.2249 5.7148 30.5141C6.00392 30.8032 6.16634 31.1953 6.16634 31.6042C6.16634 32.0131 6.00392 32.4052 5.7148 32.6943C5.42568 32.9834 5.03355 33.1459 4.62467 33.1459C4.2158 33.1459 3.82367 32.9834 3.53455 32.6943C3.24543 32.4052 3.08301 32.0131 3.08301 31.6042C3.08301 31.1953 3.24543 30.8032 3.53455 30.5141C3.82367 30.2249 4.2158 30.0625 4.62467 30.0625ZM13.8747 30.0625C14.2835 30.0625 14.6757 30.2249 14.9648 30.5141C15.2539 30.8032 15.4163 31.1953 15.4163 31.6042C15.4163 32.0131 15.2539 32.4052 14.9648 32.6943C14.6757 32.9834 14.2835 33.1459 13.8747 33.1459C13.4658 33.1459 13.0737 32.9834 12.7846 32.6943C12.4954 32.4052 12.333 32.0131 12.333 31.6042C12.333 31.1953 12.4954 30.8032 12.7846 30.5141C13.0737 30.2249 13.4658 30.0625 13.8747 30.0625ZM23.1247 30.0625C23.5336 30.0625 23.9257 30.2249 24.2148 30.5141C24.5039 30.8032 24.6663 31.1953 24.6663 31.6042C24.6663 32.0131 24.5039 32.4052 24.2148 32.6943C23.9257 32.9834 23.5336 33.1459 23.1247 33.1459C22.7158 33.1459 22.3237 32.9834 22.0346 32.6943C21.7454 32.4052 21.583 32.0131 21.583 31.6042C21.583 31.1953 21.7454 30.8032 22.0346 30.5141C22.3237 30.2249 22.7158 30.0625 23.1247 30.0625ZM32.3747 30.0625C32.7836 30.0625 33.1757 30.2249 33.4648 30.5141C33.7539 30.8032 33.9163 31.1953 33.9163 31.6042C33.9163 32.0131 33.7539 32.4052 33.4648 32.6943C33.1757 32.9834 32.7836 33.1459 32.3747 33.1459C31.9658 33.1459 31.5737 32.9834 31.2845 32.6943C30.9954 32.4052 30.833 32.0131 30.833 31.6042C30.833 31.1953 30.9954 30.8032 31.2845 30.5141C31.5737 30.2249 31.9658 30.0625 32.3747 30.0625Z" fill="white"/>
</svg>
