<svg width="100" height="100" viewBox="0 0 100 100" fill="none" xmlns="http://www.w3.org/2000/svg">
<path d="M50.0006 8.33337C27.0257 8.33337 8.33398 27.025 8.33398 50V67.2625C8.33398 71.5292 12.0715 75 16.6673 75H20.834C21.9391 75 22.9989 74.5611 23.7803 73.7797C24.5617 72.9983 25.0007 71.9384 25.0007 70.8334V49.4042C25.0007 48.2991 24.5617 47.2393 23.7803 46.4579C22.9989 45.6765 21.9391 45.2375 20.834 45.2375H17.0507C19.3673 29.1125 33.2423 16.6667 50.0006 16.6667C66.759 16.6667 80.634 29.1125 82.9507 45.2375H79.1673C78.0622 45.2375 77.0024 45.6765 76.221 46.4579C75.4396 47.2393 75.0006 48.2991 75.0006 49.4042V75C75.0006 79.5959 71.2631 83.3334 66.6673 83.3334H58.334V79.1667H41.6673V91.6667H66.6673C75.859 91.6667 83.334 84.1917 83.334 75C87.9298 75 91.6673 71.5292 91.6673 67.2625V50C91.6673 27.025 72.9756 8.33337 50.0006 8.33337Z" fill="white"/>
</svg>
