<svg width="37" height="37" viewBox="0 0 37 37" fill="none" xmlns="http://www.w3.org/2000/svg">
<path d="M18.4997 33.9166C9.98505 33.9166 3.08301 27.0146 3.08301 18.5C3.08301 9.98536 9.98505 3.08331 18.4997 3.08331C27.0143 3.08331 33.9163 9.98536 33.9163 18.5C33.9163 27.0146 27.0143 33.9166 18.4997 33.9166ZM18.4997 30.8333C21.7707 30.8333 24.9077 29.5339 27.2207 27.221C29.5336 24.908 30.833 21.771 30.833 18.5C30.833 15.229 29.5336 12.0919 27.2207 9.779C24.9077 7.46605 21.7707 6.16665 18.4997 6.16665C15.2287 6.16665 12.0916 7.46605 9.77869 9.779C7.46574 12.0919 6.16634 15.229 6.16634 18.5C6.16634 21.771 7.46574 24.908 9.77869 27.221C12.0916 29.5339 15.2287 30.8333 18.4997 30.8333ZM10.7913 20.0416H24.6663V23.125H18.4997V27.75L10.7913 20.0416ZM18.4997 13.875V9.24998L26.208 16.9583H12.333V13.875H18.4997Z" fill="white"/>
</svg>
